<svg width="500" height="495" viewBox="0 0 500 495" fill="none" xmlns="http://www.w3.org/2000/svg">
<g id="hero-image" clip-path="url(#clip0_2_20)">
<g id="back-circle">
<path id="Vector" d="M470.404 136.622C465.723 128.02 460.53 119.718 454.853 111.762C450.875 106.181 446.672 100.786 442.244 95.5767H442.233C434.22 86.147 425.505 77.3604 416.166 69.295C414.255 67.6414 412.318 66.0218 410.355 64.436C392.635 50.0763 372.985 38.3802 352.005 29.705L352.191 60.935L354.199 416.938H180.194L170.408 61.6066L171.137 30.8755C85.8281 67.4238 25.9285 153.355 25.9285 253.543C25.9126 274.223 28.5026 294.819 33.6349 314.826C35.8027 323.284 38.4272 331.613 41.4964 339.776C42.6044 342.739 43.7734 345.675 45.0033 348.585C45.5961 350.002 46.2 351.407 46.826 352.807C47.6293 354.635 48.4659 356.458 49.3246 358.258C49.9894 359.675 50.6727 361.082 51.3745 362.48C52.2775 364.314 53.2101 366.133 54.1723 367.937C54.9146 369.353 55.6792 370.759 56.4548 372.158C68.9681 394.705 84.9471 415.063 103.784 432.459C109.153 437.419 114.739 442.122 120.543 446.568C161.612 478.003 211.593 495 262.964 495C314.335 495 364.316 478.003 405.385 446.568C408.543 444.152 411.636 441.656 414.665 439.079C416.676 437.374 418.654 435.638 420.598 433.87C421.114 433.401 421.629 432.933 422.139 432.459C439.505 416.422 454.452 397.859 466.493 377.373C470.915 369.862 474.925 362.107 478.504 354.144C479.452 352.045 480.369 349.927 481.258 347.79C485.346 337.992 488.785 327.926 491.551 317.659C491.978 316.073 492.39 314.482 492.787 312.885V312.879C492.853 312.603 492.925 312.32 492.992 312.044C493.402 310.362 493.795 308.669 494.172 306.976V306.97C495.391 301.513 496.419 295.99 497.258 290.401C497.363 289.684 497.468 288.968 497.568 288.251C497.607 287.991 497.645 287.732 497.673 287.472V287.466C498.271 283.149 498.757 278.8 499.13 274.419C499.706 267.539 499.996 260.581 500 253.544C500.063 212.639 489.876 172.395 470.404 136.622Z" fill="#F2F2F2"/>
</g>
<g id="sun">
<path id="Vector_2" d="M242.046 82.8234C260.234 82.8234 274.978 67.8043 274.978 49.2774C274.978 30.7505 260.234 15.7315 242.046 15.7315C223.858 15.7315 209.114 30.7505 209.114 49.2774C209.114 67.8043 223.858 82.8234 242.046 82.8234Z" fill="#FF6584"/>
</g>
<g id="right-cloud">
<path id="Vector_3" d="M348.943 53.8572C345.976 50.664 342.843 47.6347 339.558 44.7824C333.142 39.2406 326.04 34.5282 318.123 31.5598C315.142 30.4385 312.063 29.6126 308.926 29.0935C308.55 29.0315 308.178 28.9694 307.802 28.9186C307.774 28.9158 307.746 28.9158 307.719 28.9186C307.661 28.9019 307.601 28.8906 307.541 28.8847C306.771 28.7832 306.001 28.7041 305.225 28.6477C301.048 28.3649 296.854 28.7495 292.793 29.7877C290.438 30.3932 288.139 31.209 285.924 32.2257C283.704 33.3324 281.553 34.5743 279.48 35.9447C278.367 36.6334 277.221 37.2644 276.045 37.8353C272.614 39.4917 268.981 40.6759 265.242 41.3569C262.718 41.8182 260.161 42.0748 257.597 42.1244C255.37 42.1695 253.27 42.2485 251.159 43.0668C248.906 43.929 246.883 45.3161 245.25 47.1172C243.618 48.9183 242.422 51.0834 241.757 53.4395C241.705 53.6488 241.72 53.8696 241.8 54.0697C241.879 54.2697 242.02 54.4385 242.201 54.5513C242.771 54.9689 243.325 55.443 243.929 55.8155C244.462 56.0632 245.031 56.2214 245.613 56.2838C246.566 56.487 247.521 56.6846 248.478 56.8764C251.996 57.5875 255.528 58.2177 259.076 58.767C266.212 59.8675 273.388 60.6425 280.605 61.0921C280.649 61.0987 280.693 61.1025 280.738 61.1034C288.891 61.6047 297.064 61.6857 305.225 61.3461C306.461 61.2953 307.691 61.2332 308.926 61.1598C314.073 60.8664 319.207 60.4036 324.328 59.7715C329.065 59.1846 333.783 58.4566 338.483 57.5875C341.84 56.9667 345.185 56.2745 348.516 55.5107C348.678 55.4619 348.825 55.3715 348.942 55.2481C349.06 55.1247 349.144 54.9726 349.187 54.8063C349.23 54.6401 349.23 54.4654 349.187 54.2992C349.144 54.1329 349.06 53.9807 348.943 53.8572Z" fill="#E6E6E6"/>
</g>
<g id="left-cloud">
<path id="Vector_4" d="M274.427 92.2571C269.66 87.0619 264.407 82.3518 258.743 78.1936C256.865 76.8504 254.931 75.5863 252.943 74.4293C250.504 72.9955 247.972 71.7341 245.364 70.6539C244.782 70.4112 244.195 70.1798 243.607 69.9597C240.271 68.701 236.81 67.8154 233.286 67.3186C233.258 67.3129 233.231 67.3186 233.203 67.3129C233.148 67.3017 233.087 67.2904 233.031 67.2791C231.323 67.0534 229.601 66.9459 227.879 66.9574C226.643 66.9574 225.402 67.0251 224.172 67.1493C222.185 67.3487 220.215 67.6957 218.278 68.1877C217.319 68.4304 216.366 68.7125 215.43 69.0342C214.065 69.492 212.724 70.0232 211.413 70.6256C211.391 70.6369 211.375 70.6426 211.353 70.6539C209.153 71.75 207.022 72.9826 204.97 74.3447C204.926 74.3729 204.876 74.4011 204.832 74.4293C202.502 75.8491 200.037 77.0252 197.474 77.9396C195.275 78.7231 193.019 79.3307 190.727 79.7568C188.202 80.2194 185.646 80.4741 183.081 80.5187C180.854 80.5638 178.754 80.6428 176.649 81.4668C174.396 82.3288 172.371 83.7158 170.738 85.5168C169.105 87.3179 167.907 89.4831 167.242 91.8395C167.191 92.0487 167.206 92.2692 167.285 92.469C167.365 92.6688 167.505 92.8377 167.685 92.9513C168.256 93.3689 168.815 93.8373 169.414 94.2098C169.946 94.4594 170.515 94.6176 171.098 94.6782C172.051 94.8814 173.004 95.0845 173.962 95.2764C177.48 95.9874 181.015 96.6158 184.566 97.1613C189.436 97.9119 194.326 98.512 199.236 98.9616C201.563 99.1817 203.892 99.3623 206.222 99.5034C212.2 99.8701 218.184 100.013 224.172 99.9322C225.408 99.9153 226.643 99.8871 227.879 99.8476C235.214 99.6275 242.527 99.0669 249.818 98.1658C257.945 97.1643 266.016 95.7422 274.001 93.905C274.162 93.8568 274.309 93.7669 274.426 93.644C274.543 93.5212 274.628 93.3695 274.671 93.2037C274.714 93.0379 274.714 92.8637 274.671 92.6978C274.628 92.532 274.544 92.3802 274.427 92.2571Z" fill="#E6E6E6"/>
</g>
<g id="window">
<path id="Vector_5" d="M192.342 2.22718L221.354 410.623L163.33 415.869V7.42313C170.244 1.9216 180.169 1.06087 192.342 2.22718Z" fill="#CCCCCC"/>
<path id="Vector_6" d="M335.551 2.22718L306.539 410.623L364.563 415.869V7.42313C357.649 1.9216 347.724 1.06087 335.551 2.22718Z" fill="#CCCCCC"/>
<path id="Vector_7" d="M365.928 7.60138C364.128 3.1045 360.299 0 355.873 0H171.402C165.247 0 160.244 6.01581 160.244 13.4173V419.329C160.19 423.085 161.569 426.715 164.089 429.456C165.408 430.866 167.077 431.886 168.92 432.407C169.728 432.635 170.563 432.749 171.402 432.747H355.873C356.711 432.749 357.546 432.635 358.355 432.407C363.319 431.048 367.031 425.705 367.031 419.329V13.4174C367.036 11.4243 366.661 9.44918 365.928 7.60138ZM363.33 419.329C363.33 424.273 359.984 428.296 355.873 428.296H171.402C167.995 428.296 165.108 425.532 164.228 421.768C164.039 420.969 163.944 420.151 163.945 419.329V13.4174C163.945 8.47412 167.291 4.45693 171.402 4.45693H355.873C356.629 4.45632 357.38 4.59396 358.089 4.86331C361.119 5.99587 363.33 9.40016 363.33 13.4173V419.329Z" fill="#CCCCCC"/>
<path id="Vector_8" d="M365.18 123.383H162.096V127.156H365.18V123.383Z" fill="#CCCCCC"/>
<path id="Vector_9" d="M365.18 45.5031H162.096V49.2758H365.18V45.5031Z" fill="#CCCCCC"/>
<path id="Vector_10" d="M365.18 186.262H162.096V190.035H365.18V186.262Z" fill="#CCCCCC"/>
<path id="Vector_11" d="M227.998 1.69306H224.295V239.71H227.998V1.69306Z" fill="#CCCCCC"/>
<path id="Vector_12" d="M302.981 1.69306H299.277V239.71H302.981V1.69306Z" fill="#CCCCCC"/>
<path id="Vector_13" d="M388.327 409.168H145.12C140.701 409.174 136.466 410.964 133.341 414.146C130.217 417.329 128.46 421.643 128.455 426.144C128.453 428.308 128.861 430.452 129.657 432.459C130.894 435.606 133.028 438.304 135.784 440.205C138.54 442.106 141.791 443.123 145.12 443.125H388.327C391.236 443.124 394.094 442.347 396.618 440.872C399.141 439.397 401.241 437.275 402.709 434.716C403.127 433.993 403.49 433.239 403.795 432.459C404.591 430.452 404.999 428.308 404.997 426.144C404.991 421.643 403.232 417.328 400.107 414.146C396.982 410.963 392.746 409.173 388.327 409.168Z" fill="#CCCCCC"/>
<path id="Vector_14" d="M365.18 230.906H163.33V243.482H365.18V230.906Z" fill="#CCCCCC"/>
</g>
<g id="mountain-base">
<path id="Vector_15" d="M485.274 305.543C488.521 307.873 491.64 310.249 495.208 312.044C495.141 312.32 495.069 312.603 495.003 312.879C494.565 312.67 494.139 312.45 493.712 312.224C490.094 310.294 486.981 307.67 483.585 305.39C481.901 304.205 480.062 303.266 478.122 302.602C476.1 301.983 473.986 301.731 471.878 301.857C463.086 302.298 455.551 307.642 447.38 310.334C443.38 311.654 439.125 312.36 434.953 311.53C430.781 310.701 427.075 308.443 423.391 306.4C419.756 304.38 415.795 302.348 411.551 302.348C408.094 302.354 404.46 303.765 402.61 306.88C402.552 306.973 402.461 307.04 402.356 307.066C402.251 307.092 402.141 307.075 402.048 307.019C401.955 306.963 401.887 306.873 401.858 306.767C401.83 306.661 401.843 306.547 401.895 306.451C402.309 305.741 402.818 305.093 403.407 304.527C405.823 302.196 409.374 301.276 412.637 301.547C416.859 301.897 420.709 303.929 424.36 305.971C428.233 308.139 432.2 310.469 436.676 310.943C441.097 311.417 445.474 310.238 449.574 308.652C457.513 305.576 465.346 300.452 474.177 301.022C478.344 301.293 481.911 303.133 485.274 305.543Z" fill="#3F3D56"/>
</g>
<g id="mountains">
<path id="Vector_16" d="M471.394 244.064C469.971 241.665 468.284 239.105 465.643 238.322C462.584 237.415 459.441 239.217 456.776 240.994C448.805 246.311 441.128 252.072 433.782 258.252L433.79 258.345C439.509 257.943 444.256 273.435 449.976 273.033C454.108 272.743 459.355 256.519 463.007 254.528C464.393 253.772 465.743 252.763 467.314 252.692C469.265 252.605 470.966 253.993 472.303 255.443C480.21 264.021 482.499 277.138 491.371 284.675C485.776 270.621 479.097 257.041 471.394 244.064Z" fill="#3F3D56"/>
<path id="Vector_17" d="M486.615 264.898C490.787 272.573 495.211 280.096 499.889 287.466V287.472C499.862 287.732 499.823 287.991 499.784 288.251C499.219 287.371 498.659 286.486 498.105 285.598C493.906 278.888 489.915 272.05 486.133 265.084C484.338 261.772 482.587 258.433 480.881 255.067C479.562 252.46 478.272 249.838 477.008 247.2C476.648 246.444 476.299 245.688 475.95 244.926C475.13 243.143 474.321 241.348 473.457 239.587C472.471 237.578 471.269 235.479 469.457 234.13C468.633 233.49 467.647 233.103 466.615 233.013C465.161 233.022 463.737 233.437 462.499 234.215C453.127 239.233 444.379 245.377 436.443 252.516C428.498 259.627 421.395 267.66 415.28 276.45C415.091 276.721 414.648 276.462 414.837 276.185C415.585 275.113 416.338 274.058 417.114 273.008C426.727 259.986 438.513 248.789 451.934 239.926C454.188 238.436 456.488 237.016 458.831 235.665C460.011 234.982 461.197 234.311 462.404 233.678C463.56 232.988 464.857 232.579 466.194 232.482C470.792 232.409 473.175 237.714 474.809 241.28C475.319 242.403 475.837 243.524 476.366 244.644C478.355 248.876 480.421 253.075 482.565 257.24C483.884 259.808 485.234 262.361 486.615 264.898Z" fill="#3F3D56"/>
<path id="Vector_18" d="M435.991 249.896C435.724 249.593 435.459 249.29 435.19 248.986C433.07 246.598 430.795 244.238 427.884 242.868C426.496 242.195 424.98 241.837 423.443 241.82C421.857 241.864 420.293 242.212 418.832 242.844C418.138 243.127 417.459 243.447 416.791 243.789C416.027 244.18 415.276 244.598 414.529 245.019C413.127 245.809 411.744 246.634 410.378 247.494C407.661 249.205 405.029 251.046 402.482 253.018C401.161 254.04 399.868 255.096 398.602 256.186C397.425 257.198 396.271 258.237 395.142 259.304C394.9 259.531 394.539 259.164 394.781 258.936C395.079 258.654 395.38 258.373 395.681 258.096C396.532 257.313 397.396 256.544 398.274 255.791C399.875 254.415 401.517 253.092 403.201 251.822C405.82 249.846 408.528 248.004 411.327 246.297C412.726 245.444 414.144 244.627 415.581 243.846C416.015 243.61 416.454 243.38 416.898 243.161C417.905 242.643 418.952 242.209 420.028 241.863C421.553 241.361 423.166 241.199 424.757 241.39C426.293 241.618 427.773 242.139 429.119 242.927C431.978 244.555 434.194 247.071 436.352 249.527C436.57 249.777 436.211 250.146 435.991 249.896Z" fill="#3F3D56"/>
<path id="Vector_19" d="M415.074 262.119C414.348 262.158 413.63 261.939 413.032 261.497C411.45 260.221 411.492 257.157 413.159 252.129C413.613 250.767 414.324 249.518 415.249 248.46C416.174 247.402 417.293 246.557 418.536 245.977C419.701 245.422 420.962 245.132 422.239 245.124C423.515 245.116 424.779 245.39 425.95 245.93C426.155 246.024 426.356 246.126 426.555 246.235C427.911 247.043 429.182 248.003 430.346 249.098C431.336 250.012 432.392 250.842 433.503 251.58L433.875 251.812L433.523 252.076C424.548 258.801 418.464 262.119 415.074 262.119Z" fill="#3F3D56"/>
</g>
<g id="moon">
<path id="Vector_20" d="M449.585 223.086C446.634 223.085 443.774 222.042 441.494 220.133C439.214 218.224 437.655 215.569 437.083 212.62C434.616 213.129 432.352 214.371 430.576 216.189C428.801 218.008 427.595 220.321 427.109 222.837C426.623 225.354 426.88 227.96 427.847 230.328C428.814 232.696 430.448 234.718 432.543 236.141C434.637 237.564 437.099 238.323 439.616 238.322C442.134 238.321 444.595 237.561 446.688 236.137C448.782 234.712 450.415 232.688 451.38 230.32C452.346 227.952 452.601 225.345 452.114 222.829C451.281 223 450.434 223.086 449.585 223.086Z" fill="#3F3D56"/>
</g>
<g id="left-circles">
<path id="Vector_21" opacity="0.74" d="M108.489 243.966C118.991 243.966 127.505 235.294 127.505 224.597C127.505 213.899 118.991 205.227 108.489 205.227C97.9876 205.227 89.4742 213.899 89.4742 224.597C89.4742 235.294 97.9876 243.966 108.489 243.966Z" fill="#3F3D56"/>
<path id="Vector_22" opacity="0.74" d="M127.505 243.966C138.006 243.966 146.52 235.294 146.52 224.597C146.52 213.899 138.006 205.227 127.505 205.227C117.003 205.227 108.489 213.899 108.489 224.597C108.489 235.294 117.003 243.966 127.505 243.966Z" fill="#6C63FF"/>
<path id="Vector_23" opacity="0.74" d="M118.158 228.529C128.66 228.529 137.173 219.857 137.173 209.159C137.173 198.461 128.66 189.789 118.158 189.789C107.656 189.789 99.1426 198.461 99.1426 209.159C99.1426 219.857 107.656 228.529 118.158 228.529Z" fill="#FF6584"/>
</g>
<g id="plants">
<path id="Vector_24" d="M447.126 399.297C461.156 379.987 466.552 352.786 455.638 331.49C445.403 355.445 427.18 374.939 404.192 386.525C395.311 390.96 384.98 394.951 380.869 404.115C378.311 409.818 378.798 416.551 380.855 422.459C382.911 428.368 386.408 433.626 389.869 438.811L390.051 440.365C411.837 431.163 433.096 418.608 447.126 399.297Z" fill="#E6E6E6"/>
<path id="Vector_25" d="M455.173 331.661C454.544 351.535 447.784 370.703 435.852 386.441C433.342 389.876 430.317 392.886 426.887 395.361C423.47 397.661 419.51 398.988 415.419 399.203C411.608 399.481 407.679 399.316 404.001 400.533C402.127 401.184 400.41 402.231 398.962 403.606C397.514 404.981 396.367 406.652 395.597 408.51C393.561 413.088 393.261 418.139 393.137 423.089C392.998 428.584 392.94 434.294 390.395 439.29C390.087 439.895 391.027 440.347 391.335 439.743C395.762 431.051 392.887 420.887 395.526 411.751C396.757 407.487 399.257 403.576 403.435 401.867C407.089 400.373 411.141 400.54 415.002 400.292C418.996 400.142 422.893 398.999 426.353 396.961C429.895 394.672 433.029 391.786 435.621 388.426C441.574 380.956 446.338 372.579 449.736 363.602C453.671 353.378 455.86 342.544 456.208 331.569C456.23 330.889 455.194 330.986 455.173 331.661Z" fill="white"/>
<path id="Vector_26" d="M439.987 381.604C442.851 383.285 446.208 383.874 449.459 383.266C452.71 382.658 455.643 380.893 457.734 378.285C458.155 377.756 457.368 377.064 456.946 377.594C455.003 380.026 452.271 381.67 449.242 382.23C446.214 382.789 443.089 382.228 440.431 380.647C439.853 380.304 439.412 381.263 439.987 381.604Z" fill="white"/>
<path id="Vector_27" d="M417.369 399.321C415.556 392.691 416.263 385.608 419.349 379.485C419.655 378.879 418.715 378.427 418.409 379.032C415.21 385.41 414.489 392.782 416.39 399.677C416.572 400.334 417.55 399.974 417.369 399.321H417.369Z" fill="white"/>
<path id="Vector_28" d="M452.294 353.427C451.053 353.012 449.932 352.289 449.033 351.324C448.134 350.359 447.484 349.181 447.142 347.897C446.968 347.238 445.991 347.599 446.163 348.254C446.547 349.671 447.267 350.97 448.258 352.039C449.249 353.108 450.482 353.913 451.849 354.384C451.974 354.44 452.116 354.444 452.244 354.398C452.373 354.351 452.479 354.256 452.541 354.132C452.6 354.005 452.606 353.86 452.56 353.728C452.514 353.596 452.418 353.488 452.294 353.427Z" fill="white"/>
<path id="Vector_29" d="M377.54 314.542C377.637 314.956 377.733 315.371 377.825 315.792C379.098 321.375 379.923 327.053 380.294 332.771C380.329 333.213 380.359 333.661 380.382 334.103C381.13 347.89 379.358 361.698 375.158 374.826C373.482 380.048 371.418 385.133 368.984 390.036C365.623 396.808 361.45 403.878 360.509 411.17C360.402 411.93 360.342 412.695 360.328 413.463L388.176 440.471C388.269 440.5 388.357 440.535 388.451 440.565L389.515 441.695C389.657 441.451 389.8 441.195 389.943 440.951C390.027 440.809 390.104 440.662 390.187 440.521C390.241 440.425 390.294 440.329 390.348 440.245C390.366 440.213 390.384 440.181 390.396 440.156C390.45 440.072 390.491 439.989 390.539 439.912C391.342 438.482 392.137 437.044 392.923 435.598C392.929 435.592 392.929 435.592 392.929 435.579C398.893 424.546 404.005 412.908 407.22 400.849C407.317 400.487 407.42 400.118 407.503 399.742C408.923 394.299 409.904 388.746 410.435 383.14C410.717 380.069 410.845 376.986 410.821 373.902C410.742 365.934 409.433 358.027 406.943 350.473C401.976 335.415 392.336 322.142 378.595 315.071C378.243 314.891 377.898 314.716 377.54 314.542Z" fill="#E6E6E6"/>
<path id="Vector_30" d="M377.266 314.962C388.511 331.217 394.442 350.667 394.217 370.551C394.243 374.832 393.607 379.091 392.331 383.17C390.962 387.103 388.585 390.591 385.445 393.272C382.567 395.831 379.332 398.109 377.115 401.336C376.004 403.005 375.252 404.895 374.908 406.881C374.564 408.867 374.637 410.904 375.12 412.86C376.2 417.764 378.946 421.98 381.772 426.009C384.909 430.482 388.238 435.077 389.159 440.626C389.27 441.298 390.288 441.083 390.177 440.411C388.574 430.756 380.272 424.404 376.978 415.491C375.441 411.332 375.125 406.676 377.452 402.749C379.486 399.315 382.82 396.963 385.756 394.397C388.857 391.828 391.292 388.525 392.851 384.776C394.326 380.776 395.123 376.549 395.206 372.277C395.544 362.661 394.396 353.052 391.804 343.799C388.903 333.223 384.247 323.231 378.038 314.254C377.654 313.698 376.884 314.411 377.266 314.962Z" fill="white"/>
<path id="Vector_31" d="M394.66 364.153C397.94 363.738 400.968 362.15 403.205 359.67C405.441 357.191 406.74 353.983 406.868 350.619C406.892 349.938 405.854 349.868 405.831 350.55C405.717 353.683 404.507 356.672 402.42 358.976C400.332 361.28 397.505 362.748 394.449 363.116C393.785 363.196 393.999 364.233 394.66 364.153H394.66Z" fill="white"/>
<path id="Vector_32" d="M387.072 392.17C381.706 387.988 378.084 381.9 376.929 375.118C376.815 374.446 375.797 374.662 375.911 375.333C377.126 382.387 380.908 388.716 386.501 393.055C387.035 393.468 387.603 392.581 387.072 392.17V392.17Z" fill="white"/>
<path id="Vector_33" d="M387.832 334.107C386.596 334.537 385.274 334.647 383.986 334.428C382.697 334.209 381.482 333.667 380.45 332.851C379.922 332.431 379.355 333.319 379.88 333.736C381.024 334.632 382.366 335.229 383.789 335.474C385.212 335.72 386.673 335.606 388.043 335.144C388.176 335.112 388.291 335.029 388.366 334.913C388.441 334.796 388.47 334.655 388.447 334.518C388.418 334.381 388.337 334.261 388.222 334.184C388.107 334.107 387.967 334.08 387.832 334.107Z" fill="white"/>
<path id="Vector_34" d="M11.0657 291.144C-1.3772 270.736 -4.58507 243.179 7.99146 222.856C16.2818 247.579 32.8895 268.518 54.8764 281.968C63.3742 287.124 73.3529 291.957 76.719 301.431C78.8136 307.326 77.7909 313.996 75.2701 319.715C72.7491 325.435 68.8438 330.385 64.9812 335.266L64.6755 336.8C43.6959 325.826 23.5087 311.552 11.0657 291.144Z" fill="#E6E6E6"/>
<path id="Vector_35" d="M8.44184 223.065C7.48279 242.926 12.6915 262.59 23.3282 279.263C25.5555 282.894 28.3307 286.145 31.5517 288.895C34.7743 291.472 38.6153 293.122 42.6757 293.674C46.4515 294.267 50.381 294.428 53.9496 295.945C55.765 296.749 57.3929 297.936 58.7267 299.426C60.0604 300.916 61.0699 302.676 61.6889 304.592C63.3531 309.324 63.249 314.382 62.9784 319.326C62.678 324.815 62.2806 330.511 64.4183 335.701C64.6773 336.329 63.7043 336.702 63.4457 336.074C59.7264 327.045 63.4026 317.152 61.5019 307.827C60.6149 303.476 58.4354 299.371 54.4071 297.322C50.8846 295.531 46.8325 295.361 43.0043 294.795C39.0356 294.315 35.2425 292.852 31.9565 290.535C28.6085 287.96 25.715 284.824 23.3999 281.26C18.0623 273.322 13.9831 264.579 11.3118 255.35C8.20577 244.835 6.88849 233.855 7.41697 222.887C7.44995 222.209 8.47463 222.39 8.44185 223.065L8.44184 223.065Z" fill="white"/>
<path id="Vector_36" d="M19.593 274.1C16.6045 275.538 13.2114 275.847 10.0198 274.972C6.82814 274.097 4.04576 272.095 2.16952 269.323C1.79178 268.761 2.63163 268.137 3.00987 268.7C4.75234 271.284 7.34433 273.149 10.318 273.957C13.2917 274.766 16.4512 274.465 19.2263 273.109C19.8297 272.815 20.193 273.808 19.593 274.1Z" fill="white"/>
<path id="Vector_37" d="M40.7225 293.631C43.0584 287.172 42.919 280.055 40.332 273.697C40.0751 273.067 41.048 272.694 41.3046 273.323C43.9845 279.945 44.1149 287.352 41.6695 294.067C41.436 294.707 40.4902 294.267 40.7225 293.631Z" fill="white"/>
<path id="Vector_38" d="M9.57465 244.998C10.8448 244.687 12.0192 244.059 12.9925 243.171C13.9658 242.284 14.7074 241.164 15.1507 239.912C15.3761 239.27 16.3217 239.71 16.0977 240.349C15.6016 241.729 14.7811 242.965 13.7079 243.948C12.6348 244.931 11.3416 245.632 9.94138 245.988C9.81217 246.033 9.67102 246.026 9.54663 245.969C9.42225 245.912 9.32395 245.808 9.27172 245.68C9.22381 245.548 9.22875 245.403 9.28547 245.275C9.34219 245.147 9.44612 245.048 9.57465 244.998Z" fill="white"/>
<path id="Vector_39" d="M87.1836 212.429C87.054 212.834 86.9244 213.24 86.8001 213.652C85.0859 219.111 83.8099 224.702 82.9846 230.371C82.9139 230.808 82.8488 231.252 82.7907 231.69C80.9453 245.37 81.6091 259.279 84.7484 272.711C86.0023 278.055 87.6537 283.294 89.688 288.382C92.4978 295.41 96.0932 302.802 96.4494 310.148C96.4951 310.914 96.494 311.682 96.4464 312.448L66.5361 337.061C66.4406 337.082 66.3502 337.111 66.2544 337.132L65.1042 338.17C64.9813 337.915 64.8592 337.648 64.7363 337.393C64.6644 337.246 64.5992 337.093 64.5273 336.945C64.4814 336.845 64.4359 336.744 64.3889 336.657C64.3736 336.623 64.3585 336.59 64.3486 336.563C64.3017 336.476 64.2672 336.389 64.2257 336.308C63.5392 334.817 62.8617 333.318 62.1934 331.812C62.1878 331.805 62.1878 331.805 62.189 331.793C57.1252 320.302 52.9587 308.279 50.716 295.994C50.6487 295.625 50.5755 295.249 50.5218 294.868C49.541 289.325 49.0067 283.709 48.924 278.078C48.8885 274.994 49.0063 271.91 49.2769 268.838C49.9911 260.903 51.9262 253.131 55.0112 245.808C61.1634 231.21 71.8301 218.78 86.0898 212.87C86.4546 212.719 86.8132 212.573 87.1836 212.429Z" fill="#E6E6E6"/>
<path id="Vector_40" d="M87.423 212.871C74.9185 228.141 67.4552 247.036 66.093 266.872C65.7253 271.137 66.0199 275.435 66.966 279.606C68.0164 283.64 70.1081 287.313 73.0235 290.244C75.6879 293.033 78.7303 295.572 80.6828 298.972C81.6569 300.727 82.2557 302.673 82.4399 304.681C82.6241 306.688 82.3895 308.713 81.7516 310.622C80.2837 315.421 77.2106 319.396 74.0728 323.177C70.5888 327.376 66.9047 331.68 65.5442 337.135C65.3793 337.796 64.3822 337.496 64.5468 336.837C66.914 327.346 75.696 321.702 79.6899 313.091C81.5535 309.073 82.2397 304.458 80.2342 300.352C78.4806 296.761 75.3453 294.141 72.6236 291.341C69.7384 288.523 67.5743 285.029 66.3203 281.164C65.1688 277.055 64.7121 272.776 64.9699 268.511C65.3998 258.899 67.3107 249.416 70.6324 240.409C74.3676 230.108 79.805 220.534 86.7096 212.101C87.1371 211.579 87.8478 212.353 87.423 212.871V212.871Z" fill="white"/>
<path id="Vector_41" d="M66.1625 260.459C62.9263 259.774 60.0344 257.94 58.0033 255.284C55.9721 252.628 54.9339 249.323 55.0741 245.959C55.081 245.822 55.14 245.693 55.2385 245.599C55.337 245.505 55.4674 245.454 55.6021 245.457C55.7369 245.459 55.8656 245.514 55.961 245.611C56.0564 245.708 56.1111 245.839 56.1136 245.976C55.9774 249.109 56.9448 252.187 58.8412 254.657C60.7376 257.126 63.4381 258.824 66.4552 259.443C67.1108 259.578 66.8142 260.593 66.1625 260.459Z" fill="white"/>
<path id="Vector_42" d="M71.4896 289.012C77.1718 285.288 81.2674 279.519 82.9597 272.856C83.1268 272.196 84.124 272.495 83.957 273.154C82.1833 280.085 77.9092 286.079 71.9879 289.941C71.4232 290.309 70.9281 289.377 71.4896 289.012V289.012Z" fill="white"/>
<path id="Vector_43" d="M75.3642 231.078C76.5622 231.609 77.8708 231.828 79.1725 231.716C80.4742 231.604 81.7283 231.165 82.8221 230.437C83.3819 230.063 83.8765 230.994 83.3203 231.367C82.1082 232.165 80.7226 232.648 79.2847 232.775C77.8468 232.902 76.4002 232.668 75.0715 232.094C74.9418 232.051 74.8332 231.958 74.7678 231.836C74.7023 231.714 74.685 231.572 74.7192 231.437C74.7586 231.303 74.8485 231.19 74.9693 231.122C75.0901 231.055 75.232 231.039 75.3642 231.078Z" fill="white"/>
<path id="Vector_44" d="M103.286 309.104H37.5795C37.1221 309.104 36.6835 309.289 36.3595 309.618C36.0356 309.947 35.8528 310.393 35.851 310.859V314.826C38.0188 323.284 40.6433 331.613 43.7125 339.776H103.286C103.512 339.776 103.736 339.731 103.945 339.643C104.155 339.555 104.345 339.425 104.505 339.262C104.665 339.099 104.792 338.906 104.878 338.693C104.965 338.48 105.009 338.251 105.009 338.021V310.859C105.008 310.393 104.827 309.947 104.504 309.618C104.181 309.289 103.743 309.104 103.286 309.104Z" fill="#8F88FC"/>
<path id="Vector_45" d="M97.0255 348.585H47.2194C47.8122 350.002 48.4161 351.407 49.0422 352.807H97.0255C99.729 352.846 99.7014 348.546 97.0255 348.585Z" fill="#E4E4E4"/>
<path id="Vector_46" d="M97.0254 358.258H51.5407C52.2055 359.675 52.8888 361.082 53.5905 362.48H97.0254C99.729 362.519 99.7013 358.224 97.0254 358.258Z" fill="#E4E4E4"/>
<path id="Vector_47" d="M97.0254 367.937H56.3884C57.1308 369.353 57.8953 370.759 58.6709 372.158H97.0254C99.729 372.198 99.7013 367.897 97.0254 367.937Z" fill="#E4E4E4"/>
</g>
<g id="person">
<path id="Vector_48" d="M262.403 227.134H266.107C267.908 227.134 269.635 227.862 270.908 229.16C272.182 230.457 272.897 232.216 272.897 234.05H255.613C255.613 233.142 255.789 232.243 256.13 231.403C256.471 230.564 256.971 229.802 257.602 229.16C258.232 228.517 258.981 228.008 259.805 227.66C260.629 227.313 261.512 227.134 262.403 227.134Z" fill="#CCCCCC"/>
<path id="ab6171fa-7d69-4734-b81c-8dff60f9761b" d="M267.816 266.373C288.943 266.373 306.07 248.927 306.07 227.406C306.07 205.885 288.943 188.439 267.816 188.439C246.689 188.439 229.562 205.885 229.562 227.406C229.562 248.927 246.689 266.373 267.816 266.373Z" fill="#FFB8B8"/>
<path id="bf427902-b9bf-4946-b5d7-5c1c7e04535e" d="M225.143 189.92C225.432 185.445 228.337 180.866 237.567 178.473C237.567 178.473 253.407 157.84 274.932 168.66C274.932 168.66 285.367 166.831 293.105 177.86C293.105 177.86 300.777 173.251 304.014 181.421C304.014 181.421 313.011 198.085 309.699 215.082C306.386 232.079 304.691 234.2 304.691 234.2C304.691 234.2 308.913 199.042 284.594 201.48C260.274 203.918 240.695 195.206 235.188 214.28C230.614 230.119 231.19 238.344 231.19 238.344C231.19 238.344 215.898 222.544 221.097 210.103C223.757 203.739 224.697 196.821 225.143 189.92Z" fill="#2F2E41"/>
<path id="Vector_49" d="M163.79 440.36H375.38C373.966 423.919 373.042 361.071 373.042 356.935C373.042 338.691 358.387 318.782 358.387 318.782L353.141 315.828L309.335 301.906L297.998 286.905C296.811 285.33 295.281 284.057 293.529 283.185C291.777 282.314 289.851 281.868 287.902 281.884L252.09 282.157C248.939 282.182 245.91 283.405 243.597 285.586L221.421 306.541L188.896 322.363L188.841 322.306L188.501 322.564L183.674 326.105L180.57 328.39C180.57 328.39 172.424 338.345 165.915 368.202C164.935 372.692 164.248 430.823 163.79 440.36Z" fill="#8D36FF"/>
<path id="Vector_50" d="M424.355 432.459C423.845 432.933 423.33 433.401 422.814 433.87C420.864 435.636 418.886 437.373 416.881 439.079C413.85 441.652 410.757 444.149 407.601 446.568H122.759C116.959 442.132 111.373 437.429 106 432.459H424.355Z" fill="#CCCCCC"/>
<path id="Vector_51" d="M319.945 435.845H215.236L217.452 425.123H317.729L319.945 435.845Z" fill="#2F2E41"/>
<path id="Vector_52" d="M414.676 389.569H387.429C386.814 389.567 386.207 389.702 385.649 389.965C385.091 390.229 384.596 390.613 384.2 391.092C383.82 391.018 383.434 390.98 383.047 390.979C382.198 390.979 381.357 391.148 380.572 391.479C379.787 391.809 379.074 392.294 378.473 392.905C377.873 393.517 377.396 394.243 377.071 395.042C376.746 395.841 376.578 396.698 376.578 397.563C376.578 398.428 376.746 399.284 377.071 400.083C377.396 400.882 377.873 401.608 378.473 402.22C379.074 402.831 379.787 403.316 380.572 403.646C381.357 403.977 382.198 404.147 383.047 404.146C384.023 404.145 384.986 403.918 385.862 403.48L386.316 409.168L388.122 431.652C388.208 431.933 388.323 432.203 388.465 432.459C388.831 433.142 389.369 433.712 390.026 434.109C390.682 434.506 391.431 434.716 392.194 434.716H409.911C410.675 434.716 411.425 434.505 412.082 434.108C412.739 433.711 413.279 433.142 413.646 432.459C413.784 432.202 413.897 431.932 413.983 431.652L418.748 395.184C418.944 394.535 418.988 393.848 418.876 393.179C418.764 392.509 418.499 391.876 418.103 391.33C417.707 390.784 417.19 390.34 416.595 390.034C416 389.728 415.343 389.569 414.676 389.569ZM383.047 402.266C381.823 402.265 380.65 401.769 379.785 400.887C378.921 400.005 378.435 398.809 378.435 397.563C378.435 396.316 378.921 395.12 379.785 394.238C380.65 393.356 381.823 392.86 383.047 392.859C383.13 392.859 383.208 392.881 383.291 392.887C383.109 393.645 383.132 394.438 383.357 395.184L385.308 401.64C384.621 402.047 383.841 402.263 383.047 402.266Z" fill="#3F3D56"/>
<path id="Vector_53" d="M353.136 270.248H180.66C179.178 270.251 177.757 270.851 176.71 271.919C175.662 272.986 175.072 274.433 175.07 275.943V394.501C175.071 396.011 175.66 397.458 176.709 398.526C177.757 399.593 179.178 400.194 180.66 400.195H353.136C354.618 400.194 356.039 399.593 357.087 398.526C358.135 397.458 358.724 396.011 358.726 394.501V275.943C358.724 274.433 358.134 272.986 357.086 271.919C356.038 270.851 354.618 270.251 353.136 270.248Z" fill="#3F3D56"/>
<path id="Vector_54" d="M286.322 365.245H245.973C245.402 365.246 244.855 365.478 244.452 365.889C244.049 366.301 243.822 366.859 243.823 367.44V432.369H288.477V367.44C288.477 367.152 288.421 366.867 288.313 366.6C288.205 366.334 288.046 366.092 287.846 365.888C287.646 365.684 287.408 365.522 287.146 365.412C286.885 365.302 286.605 365.245 286.322 365.245ZM266.283 402.137C265.021 402.131 263.813 401.617 262.92 400.708C262.028 399.8 261.524 398.569 261.518 397.283V389.794C261.52 388.508 262.022 387.275 262.916 386.366C263.809 385.457 265.02 384.946 266.283 384.946C267.546 384.946 268.757 385.457 269.65 386.366C270.543 387.275 271.046 388.508 271.047 389.794V397.283C271.042 398.569 270.538 399.8 269.645 400.708C268.753 401.617 267.545 402.131 266.283 402.137Z" fill="#2F2E41"/>
<path id="Vector_55" d="M243.685 430.292V436.556C243.685 436.881 243.812 437.192 244.037 437.421C244.263 437.651 244.568 437.78 244.887 437.781H287.413C287.731 437.779 288.036 437.65 288.261 437.42C288.486 437.191 288.614 436.881 288.615 436.556V430.292H243.685Z" fill="#3F3D56"/>
<path id="Vector_56" d="M349.468 393.262C350.972 393.262 352.191 392.02 352.191 390.488C352.191 388.956 350.972 387.714 349.468 387.714C347.964 387.714 346.745 388.956 346.745 390.488C346.745 392.02 347.964 393.262 349.468 393.262Z" fill="#2F2E41"/>
<path id="Vector_57" d="M202.433 386.465C202.307 386.465 202.183 386.49 202.068 386.538C201.952 386.587 201.847 386.659 201.759 386.749C201.67 386.839 201.6 386.946 201.552 387.064C201.504 387.182 201.48 387.308 201.48 387.435V392.43C201.48 392.687 201.581 392.933 201.76 393.115C201.938 393.296 202.18 393.398 202.433 393.398C202.685 393.398 202.927 393.296 203.105 393.115C203.284 392.933 203.385 392.687 203.385 392.43V387.435C203.385 387.308 203.361 387.182 203.313 387.064C203.265 386.946 203.195 386.839 203.106 386.749C203.018 386.659 202.913 386.587 202.797 386.538C202.682 386.49 202.558 386.465 202.433 386.465Z" fill="#2F2E41"/>
<path id="Vector_58" d="M207.607 386.465C207.482 386.465 207.358 386.49 207.242 386.538C207.127 386.587 207.022 386.659 206.933 386.749C206.845 386.839 206.775 386.946 206.727 387.064C206.679 387.182 206.654 387.308 206.654 387.435V392.43C206.654 392.687 206.754 392.934 206.933 393.116C207.112 393.298 207.354 393.4 207.607 393.4C207.86 393.4 208.102 393.298 208.281 393.116C208.46 392.934 208.56 392.687 208.56 392.43V387.435C208.56 387.308 208.535 387.182 208.487 387.064C208.44 386.946 208.369 386.839 208.281 386.749C208.192 386.659 208.087 386.587 207.972 386.538C207.856 386.49 207.732 386.465 207.607 386.465Z" fill="#2F2E41"/>
<path id="Vector_59" d="M212.782 386.465C212.656 386.465 212.532 386.49 212.417 386.538C212.301 386.587 212.196 386.659 212.108 386.749C212.019 386.839 211.949 386.946 211.901 387.064C211.853 387.182 211.829 387.308 211.829 387.435V392.43C211.829 392.687 211.93 392.933 212.109 393.115C212.287 393.296 212.529 393.398 212.782 393.398C213.034 393.398 213.276 393.296 213.454 393.115C213.633 392.933 213.734 392.687 213.734 392.43V387.435C213.734 387.308 213.71 387.182 213.662 387.064C213.614 386.946 213.544 386.839 213.455 386.749C213.367 386.659 213.262 386.587 213.146 386.538C213.031 386.49 212.907 386.465 212.782 386.465Z" fill="#2F2E41"/>
<path id="Vector_60" d="M217.956 386.465C217.831 386.465 217.707 386.49 217.591 386.538C217.476 386.587 217.371 386.659 217.282 386.749C217.194 386.839 217.124 386.946 217.076 387.064C217.028 387.182 217.003 387.308 217.003 387.435V392.43C217.004 392.687 217.105 392.933 217.283 393.115C217.462 393.296 217.704 393.398 217.956 393.398C218.208 393.398 218.45 393.296 218.629 393.115C218.808 392.933 218.908 392.687 218.909 392.43V387.435C218.909 387.308 218.884 387.182 218.837 387.064C218.789 386.946 218.718 386.839 218.63 386.749C218.541 386.659 218.436 386.587 218.321 386.538C218.205 386.49 218.081 386.465 217.956 386.465Z" fill="#2F2E41"/>
<path id="Vector_61" d="M222.085 433.023C230.04 433.023 236.489 426.454 236.489 418.35C236.489 410.247 230.04 403.677 222.085 403.677C214.129 403.677 207.68 410.247 207.68 418.35C207.68 426.454 214.129 433.023 222.085 433.023Z" fill="#FFB8B8"/>
<path id="Vector_62" d="M322.715 435.845C330.67 435.845 337.119 429.276 337.119 421.172C337.119 413.068 330.67 406.499 322.715 406.499C314.76 406.499 308.31 413.068 308.31 421.172C308.31 429.276 314.76 435.845 322.715 435.845Z" fill="#FFB8B8"/>
</g>
<g id="left-tiles">
<path id="Vector_63" d="M137.773 142.327V143.473C137.401 143.398 137.023 143.36 136.643 143.36H130.848V156.035C130.847 157.912 130.115 159.711 128.812 161.038C127.509 162.365 125.743 163.111 123.901 163.112H115.336V165.065C115.336 165.848 115.488 166.623 115.784 167.345H114.599C114.351 166.611 114.226 165.841 114.228 165.065V163.112H109.518V161.984H114.228V149.308C114.229 147.432 114.961 145.632 116.264 144.305C117.566 142.978 119.333 142.232 121.175 142.231H129.74V140.256H130.848V142.231H136.643C137.022 142.232 137.4 142.264 137.773 142.327Z" fill="#6C63FF"/>
<path id="Vector_64" d="M123.901 133.202H108.433C106.59 133.203 104.824 133.949 103.521 135.276C102.219 136.603 101.486 138.402 101.485 140.279V156.035C101.486 157.912 102.219 159.711 103.521 161.038C104.824 162.365 106.59 163.111 108.433 163.112H123.901C125.743 163.111 127.509 162.365 128.812 161.038C130.115 159.711 130.847 157.912 130.848 156.035V140.256C130.841 138.383 130.107 136.59 128.805 135.267C127.503 133.945 125.739 133.203 123.901 133.202ZM129.74 156.035C129.738 157.612 129.122 159.124 128.027 160.239C126.933 161.354 125.449 161.981 123.901 161.984H108.433C106.885 161.981 105.4 161.354 104.306 160.239C103.211 159.124 102.595 157.612 102.593 156.035V140.279C102.595 138.702 103.211 137.19 104.306 136.075C105.4 134.96 106.885 134.333 108.433 134.331H123.901C125.445 134.332 126.926 134.957 128.02 136.067C129.114 137.177 129.732 138.683 129.74 140.256V156.035Z" fill="#3F3D56"/>
<path id="Vector_65" d="M114.228 161.984V163.112H115.336V161.984H114.228ZM114.228 161.984V163.112H115.336V161.984H114.228ZM137.773 142.327C137.4 142.264 137.022 142.232 136.643 142.231H121.175C119.333 142.232 117.566 142.978 116.264 144.305C114.961 145.632 114.229 147.432 114.228 149.308V165.065C114.226 165.841 114.351 166.611 114.599 167.345C115.066 168.744 115.952 169.958 117.131 170.818C118.311 171.679 119.725 172.141 121.175 172.142H136.643C138.485 172.141 140.252 171.395 141.554 170.068C142.857 168.741 143.589 166.942 143.59 165.065V149.308C143.59 147.631 143.005 146.009 141.94 144.73C140.874 143.452 139.398 142.6 137.773 142.327ZM142.482 165.065C142.48 166.642 141.864 168.154 140.77 169.269C139.675 170.384 138.191 171.011 136.643 171.013H121.175C119.627 171.011 118.143 170.384 117.048 169.269C115.954 168.153 115.338 166.642 115.336 165.065V149.308C115.338 147.731 115.954 146.22 117.048 145.105C118.143 143.99 119.627 143.362 121.175 143.36H136.643C138.192 143.361 139.677 143.988 140.772 145.103C141.866 146.218 142.482 147.731 142.482 149.308V165.065ZM114.228 161.984V163.112H115.336V161.984H114.228Z" fill="#3F3D56"/>
</g>
<g id="right-tiles">
<path id="Vector_66" d="M437.663 107.792H437.347C438.33 107.793 439.299 108.026 440.178 108.474H438.741C437.193 108.476 435.709 109.103 434.614 110.218C433.52 111.333 432.904 112.845 432.902 114.422V130.179C432.904 131.756 433.52 133.268 434.614 134.383C435.709 135.498 437.193 136.125 438.741 136.127H439.657C438.921 136.421 438.138 136.572 437.347 136.574H437.663C439.358 136.572 440.983 135.885 442.182 134.664C443.38 133.443 444.054 131.788 444.056 130.061V114.304C444.054 112.578 443.38 110.922 442.182 109.701C440.983 108.481 439.358 107.794 437.663 107.792Z" fill="#3F3D56"/>
<path id="Vector_67" opacity="0.21" d="M437.663 107.792H437.347C438.33 107.793 439.299 108.026 440.178 108.474H438.741C437.193 108.476 435.709 109.103 434.614 110.218C433.52 111.333 432.904 112.845 432.902 114.422V130.179C432.904 131.756 433.52 133.268 434.614 134.383C435.709 135.498 437.193 136.125 438.741 136.127H439.657C438.921 136.421 438.138 136.572 437.347 136.574H437.663C439.358 136.572 440.983 135.885 442.182 134.664C443.38 133.443 444.054 131.788 444.056 130.061V114.304C444.054 112.578 443.38 110.922 442.182 109.701C440.983 108.481 439.358 107.794 437.663 107.792Z" fill="black"/>
<path id="Vector_68" d="M396.666 107.792H396.35C397.333 107.793 398.302 108.026 399.181 108.474H397.744C396.196 108.476 394.712 109.103 393.617 110.218C392.523 111.333 391.907 112.845 391.905 114.422V130.179C391.907 131.756 392.523 133.268 393.617 134.383C394.712 135.498 396.196 136.125 397.744 136.127H398.66C397.924 136.421 397.141 136.572 396.35 136.574H396.666C398.361 136.572 399.986 135.885 401.184 134.664C402.383 133.443 403.057 131.788 403.059 130.061V114.304C403.057 112.578 402.383 110.922 401.184 109.701C399.986 108.481 398.361 107.794 396.666 107.792Z" fill="#6C63FF"/>
<path id="Vector_69" opacity="0.21" d="M396.666 107.792H396.35C397.333 107.793 398.302 108.026 399.181 108.474H397.744C396.196 108.476 394.712 109.103 393.617 110.218C392.523 111.333 391.907 112.845 391.905 114.422V130.179C391.907 131.756 392.523 133.268 393.617 134.383C394.712 135.498 396.196 136.125 397.744 136.127H398.66C397.924 136.421 397.141 136.572 396.35 136.574H396.666C398.361 136.572 399.986 135.885 401.184 134.664C402.383 133.443 403.057 131.788 403.059 130.061V114.304C403.057 112.578 402.383 110.922 401.184 109.701C399.986 108.481 398.361 107.794 396.666 107.792Z" fill="black"/>
<path id="Vector_70" d="M397.806 136.176C396.258 136.174 394.774 135.547 393.679 134.432C392.584 133.317 391.969 131.805 391.967 130.228V114.471C391.969 112.894 392.584 111.382 393.679 110.267C394.774 109.152 396.258 108.525 397.806 108.523H399.243C398.364 108.075 397.395 107.842 396.412 107.841H380.943C379.248 107.843 377.623 108.53 376.425 109.751C375.226 110.971 374.552 112.627 374.55 114.353V130.11C374.552 131.837 375.226 133.492 376.425 134.713C377.623 135.934 379.248 136.621 380.943 136.623H396.412C397.203 136.622 397.986 136.47 398.722 136.176L397.806 136.176Z" fill="#6C63FF"/>
<path id="Vector_71" d="M438.803 136.176C437.255 136.174 435.771 135.547 434.676 134.432C433.582 133.317 432.966 131.805 432.964 130.228V114.471C432.966 112.894 433.582 111.382 434.676 110.267C435.771 109.152 437.255 108.525 438.803 108.523H440.24C439.361 108.075 438.392 107.842 437.409 107.841H421.941C420.246 107.843 418.621 108.53 417.422 109.751C416.224 110.971 415.549 112.627 415.547 114.353V130.11C415.549 131.837 416.224 133.492 417.422 134.713C418.621 135.934 420.246 136.621 421.941 136.623H437.409C438.2 136.622 438.983 136.47 439.719 136.176L438.803 136.176Z" fill="#3F3D56"/>
<path id="Vector_72" d="M457.069 111.762C462.746 119.952 467.94 128.499 472.621 137.354H462.936C461.242 137.351 459.617 136.644 458.418 135.387C457.22 134.131 456.546 132.427 456.543 130.65V114.429C456.543 113.512 456.722 112.604 457.069 111.762Z" fill="#FF6584"/>
</g>
<g id="pointer">
<path id="Vector_73" d="M437.651 144.889L432.233 136.622L428.272 130.578C428.04 130.225 427.716 129.945 427.335 129.773C426.955 129.6 426.534 129.54 426.122 129.601C425.71 129.662 425.323 129.841 425.006 130.116C424.689 130.392 424.456 130.754 424.333 131.159L422.665 136.622L419.308 147.598C419.175 148.036 419.176 148.504 419.312 148.94C419.447 149.377 419.71 149.761 420.065 150.041C420.42 150.321 420.851 150.484 421.3 150.509C421.749 150.533 422.194 150.418 422.576 150.177L423.768 149.427C424.007 149.276 424.281 149.191 424.562 149.178C424.843 149.165 425.123 149.226 425.375 149.354C425.627 149.482 425.843 149.674 426.002 149.911C426.16 150.148 426.257 150.422 426.283 150.708L427.374 162.841C427.425 163.399 427.678 163.917 428.084 164.294C428.489 164.672 429.019 164.882 429.568 164.884C429.634 164.884 429.701 164.879 429.773 164.873L431.446 164.721C431.735 164.694 432.015 164.61 432.272 164.472C432.528 164.335 432.756 164.147 432.941 163.92C433.126 163.693 433.266 163.431 433.352 163.149C433.437 162.867 433.468 162.571 433.441 162.277L432.316 149.749C432.289 149.454 432.339 149.158 432.461 148.89C432.582 148.621 432.771 148.39 433.008 148.22C433.245 148.049 433.522 147.945 433.811 147.918C434.1 147.892 434.391 147.943 434.654 148.067L434.898 148.18C435.334 148.384 435.824 148.438 436.294 148.333C436.763 148.228 437.186 147.969 437.497 147.597C437.809 147.224 437.993 146.758 438.021 146.269C438.048 145.781 437.919 145.296 437.651 144.889Z" fill="#CCCCCC"/>
</g>
</g>
<defs>
<clipPath id="clip0_2_20">
<rect width="500" height="495" fill="white"/>
</clipPath>
</defs>
</svg>
