<svg width="300" height="101" viewBox="0 0 300 101" fill="none" xmlns="http://www.w3.org/2000/svg">
<g id="skills">
<g id="git">
<path id="Vector" d="M295.157 77.1544L282.228 64.3238C281.831 63.9302 281.276 63.6941 280.721 63.6941C280.166 63.6941 279.611 63.9302 279.214 64.3238L276.438 67.0789L279.69 70.3062C280.007 70.1488 280.324 70.07 280.721 70.07C282.069 70.07 283.101 71.0933 283.101 72.4315C283.101 72.8251 283.021 73.1399 282.863 73.4548L286.035 76.6034C286.353 76.446 286.67 76.3673 287.066 76.3673C288.415 76.3673 289.446 77.3906 289.446 78.7287C289.446 80.0669 288.415 81.0902 287.066 81.0902C285.718 81.0902 284.687 80.0669 284.687 78.7287C284.687 78.3352 284.766 78.0203 284.925 77.7054L281.752 74.5568C281.673 74.5568 281.594 74.6355 281.514 74.6355V82.8219C282.466 83.1368 283.101 84.0027 283.101 85.026C283.101 86.3641 282.069 87.3874 280.721 87.3874C279.373 87.3874 278.341 86.3641 278.341 85.026C278.341 84.0027 278.976 83.1368 279.928 82.8219V74.5568C278.976 74.242 278.341 73.3761 278.341 72.3528C278.341 71.9592 278.421 71.6443 278.579 71.3295L275.327 68.1022L266.285 77.1544C265.889 77.548 265.651 78.099 265.651 78.65C265.651 79.201 265.889 79.752 266.285 80.1456L279.214 92.9762C279.611 93.3698 280.166 93.6059 280.721 93.6059C281.276 93.6059 281.831 93.3698 282.228 92.9762L295.157 80.1456C295.553 79.752 295.791 79.201 295.791 78.65C295.791 78.099 295.553 77.548 295.157 77.1544Z" fill="#F4511E"/>
</g>
<g id="java">
<path id="Vector_2" d="M22.8197 82.1272C22.0281 80.8607 21.4538 79.8106 20.6583 77.8333C19.3131 74.4934 28.8399 71.4755 24.9771 65.6765C26.6515 69.6823 18.9672 72.1587 18.2534 75.4947C17.6006 78.563 22.8157 82.1272 22.8197 82.1272Z" fill="#F44336"/>
<path id="Vector_3" d="M23.0005 76.123C22.8483 78.1034 24.7685 79.159 24.8241 80.6058C24.8685 81.7834 23.6763 82.765 23.6763 82.765C23.6763 82.765 25.8401 82.343 26.5151 80.5468C27.2647 78.5521 25.0604 77.1864 25.2873 75.5893C25.499 74.0638 30.0709 71.2261 30.0709 71.2261C30.0709 71.2261 23.344 71.6685 23.0005 76.123Z" fill="#F44336"/>
<g id="Group">
<path id="Vector_4" d="M29.5093 82.2509C30.9006 81.9408 32.0737 82.82 32.0737 83.8331C32.0737 86.1166 28.8843 88.275 28.8843 88.275C28.8843 88.275 33.8218 87.6909 33.8218 83.9417C33.8218 81.4622 31.3971 80.8427 29.5093 82.2509ZM27.1655 84.0929C27.1655 84.0929 28.705 83.0042 29.1151 82.5957C25.3372 83.3915 16.7114 83.4986 16.7114 82.8074C16.7114 82.1706 19.4931 81.5181 19.4931 81.5181C19.4931 81.5181 13.3277 81.4299 13.3277 83.2349C13.3277 85.1162 21.3983 85.2508 27.1655 84.0929Z" fill="#1565C0"/>
<path id="Vector_5" d="M26.2184 85.8058C22.642 86.9858 16.0547 86.6087 18.0059 85.0242C17.0557 85.0242 15.647 85.7822 15.647 86.5111C15.647 87.9728 22.7713 89.1016 28.0443 86.9614L26.2184 85.8058Z" fill="#1565C0"/>
<path id="Vector_6" d="M18.8824 88.2993C17.5847 88.2993 16.7448 89.129 16.7448 89.7335C16.7448 91.6156 24.4862 91.8053 27.5534 89.8949L25.6037 88.6102C23.3123 89.6099 17.5562 89.7477 18.8824 88.2993Z" fill="#1565C0"/>
<path id="Vector_7" d="M32.8383 91.3638C32.8383 90.627 32.0015 90.2798 31.7017 90.1138C33.4689 94.3431 14.0004 94.0149 14.0004 91.518C14.0004 90.9505 15.4336 90.3948 16.7582 90.6577L15.6319 89.9973C12.9922 89.5864 11.1996 90.738 11.1996 91.6668C11.1996 95.9985 32.8383 95.7899 32.8383 91.3638Z" fill="#1565C0"/>
<path id="Vector_8" d="M34.9949 92.916C31.7064 96.1394 23.3678 97.3138 14.9823 95.3223C23.3678 98.8669 34.9553 96.8707 34.9949 92.916Z" fill="#1565C0"/>
</g>
</g>
<g id="mysql" clip-path="url(#clip0_7_13)">
<path id="Vector_9" d="M174.374 83.3104H175.896V77.7334L178.012 82.5012C178.273 83.0955 178.63 83.3057 179.33 83.3057C180.03 83.3057 180.373 83.0955 180.634 82.5012L182.749 77.8554V83.3104H184.272V77.5972C184.272 77.0486 184.053 76.7825 183.599 76.6456C182.515 76.3071 181.787 76.5991 181.457 77.332L179.288 82.1808L177.187 77.332C176.871 76.5999 176.13 76.3071 175.045 76.6456C174.592 76.7825 174.372 77.0478 174.372 77.5964V83.3096H174.374V83.3104Z" fill="#00796B"/>
<path id="Vector_10" d="M185.033 78.7764H186.556V81.9683C186.544 82.1257 186.607 82.5437 187.341 82.5547C187.716 82.561 189.579 82.5547 189.602 82.5547V78.7764H191.125C191.131 78.7764 191.125 83.4741 191.125 83.4938C191.133 84.6525 189.675 84.802 189.004 84.8217H185.034V84.066C185.042 84.066 188.831 84.0668 188.842 84.066C189.705 83.9755 189.603 83.504 189.603 83.3607V83.3104H187.213C185.889 83.2986 185.044 82.7192 185.035 82.0588C185.033 81.9974 185.063 78.8047 185.033 78.7764Z" fill="#00796B"/>
<path id="Vector_11" d="M191.886 83.3105H195.699C196.199 83.3105 196.684 83.2066 197.069 83.0272C197.712 82.7343 197.977 82.3384 197.977 81.8181V80.7413C197.977 79.5794 196.525 79.5322 195.693 79.5322H194.17C193.571 79.5322 193.48 79.1732 193.408 78.7765V78.0209C193.48 77.7186 193.613 77.3124 194.14 77.2652C194.753 77.2652 197.976 77.2652 197.976 77.2652V76.5095H194.354C193.756 76.5095 191.884 76.5804 191.884 78.0209V78.9552C191.884 79.6164 192.47 80.1548 193.74 80.2871C193.883 80.2965 194.026 80.306 194.168 80.306C194.168 80.306 195.648 80.2776 195.691 80.2871C196.548 80.2871 196.452 80.9483 196.452 81.0427V81.7984C196.452 81.9023 196.429 82.5541 195.682 82.5541C195.625 82.5541 191.884 82.5541 191.884 82.5541V83.3105H191.886Z" fill="#F57F17"/>
<path id="Vector_12" d="M206.353 81.7667C206.353 82.679 206.872 83.1907 208.25 83.293C208.379 83.3017 208.508 83.3096 208.637 83.3096H212.444V82.5539H208.927C208.141 82.5539 207.876 82.2264 207.876 81.7581V76.5085H206.353V81.7667V81.7667Z" fill="#F57F17"/>
<path id="Vector_13" d="M198.726 81.7992V78.0209C198.726 77.218 199.122 76.6638 200.245 76.5095H200.778H203.512H203.929C205.052 76.6638 205.579 77.2172 205.579 78.0209V81.785C205.579 82.436 205.408 82.7855 204.852 83.0122L206.032 84.0654H204.319L203.47 83.3097H202.473L200.779 83.3192C200.534 83.3192 200.275 83.2853 199.992 83.2082C199.14 82.9776 198.726 82.5336 198.726 81.7992ZM200.249 81.7992C200.326 82.1668 200.624 82.5549 201.153 82.5549H202.631L201.784 81.7992H203.509L203.921 82.1786C203.921 82.1786 204.068 82.059 204.068 81.7992C204.068 81.5394 204.056 78.0209 204.056 78.0209C203.978 77.6792 203.629 77.2652 203.113 77.2652H201.154C200.559 77.2652 200.249 77.6966 200.249 78.098L200.249 81.7992Z" fill="#F57F17"/>
<path id="Vector_14" d="M211.016 75.7128C210.198 75.6907 209.574 75.7663 209.04 75.9891C208.889 76.0528 208.647 76.0544 208.621 76.2433C208.705 76.3299 208.717 76.4598 208.784 76.5661C208.911 76.7707 209.127 77.0454 209.318 77.1887C209.529 77.3461 209.745 77.5146 209.97 77.6508C210.369 77.8924 210.816 78.031 211.201 78.2734C211.428 78.4159 211.654 78.5969 211.876 78.7575C211.985 78.8378 212.058 78.9614 212.201 79.0117C212.201 79.0039 212.201 78.9968 212.201 78.9889C212.126 78.8945 212.107 78.7646 212.038 78.6654C211.938 78.5654 211.837 78.4655 211.736 78.3655C211.441 77.9766 211.065 77.6342 210.667 77.3508C210.349 77.1241 209.637 76.8179 209.504 76.4511C209.496 76.4433 209.489 76.4362 209.48 76.4275C209.706 76.4023 209.97 76.3213 210.177 76.2662C210.527 76.1733 210.839 76.1977 211.2 76.1048C211.363 76.0583 211.525 76.0127 211.688 75.9662C211.688 75.9355 211.688 75.9048 211.688 75.8741C211.505 75.6884 211.374 75.4428 211.176 75.2743C210.655 74.8343 210.087 74.3951 209.503 74.0283C209.178 73.8252 208.777 73.6929 208.433 73.5206C208.317 73.4623 208.114 73.4324 208.038 73.3364C207.857 73.1081 207.76 72.8176 207.62 72.5524C207.328 71.9951 207.041 71.3858 206.783 70.7994C206.607 70.3995 206.492 70.0043 206.272 69.6454C205.216 67.9231 204.08 66.8833 202.32 65.8616C201.946 65.6443 201.495 65.5585 201.018 65.4459C200.762 65.431 200.506 65.4152 200.25 65.3995C200.094 65.3342 199.932 65.1452 199.785 65.0531C199.202 64.6871 197.706 63.8921 197.274 64.9374C197.001 65.5971 197.682 66.241 197.925 66.5755C198.096 66.8101 198.315 67.073 198.437 67.3375C198.517 67.5106 198.531 67.6846 198.6 67.868C198.768 68.3198 199.036 68.8346 199.255 69.2526C199.365 69.4644 199.487 69.6863 199.627 69.8752C199.712 69.991 199.859 70.0421 199.883 70.2216C199.739 70.4207 199.731 70.7301 199.65 70.9836C199.287 72.121 199.424 73.5339 199.953 74.3746C200.114 74.6328 200.497 75.187 201.022 74.9744C201.481 74.7887 201.379 74.2133 201.51 73.7055C201.539 73.5906 201.521 73.5064 201.579 73.4292C201.579 73.4371 201.579 73.4442 201.579 73.4529C201.719 73.7292 201.858 74.007 201.998 74.2833C202.308 74.7784 202.858 75.2956 203.323 75.6451C203.564 75.8261 203.754 76.1394 204.067 76.2449C204.067 76.237 204.067 76.2299 204.067 76.2213C204.059 76.2213 204.052 76.2213 204.043 76.2213C203.983 76.1276 203.888 76.089 203.811 76.0135C203.629 75.8364 203.426 75.6167 203.276 75.4137C202.853 74.843 202.478 74.218 202.137 73.5678C201.974 73.2569 201.832 72.9152 201.695 72.5988C201.642 72.4768 201.643 72.2926 201.533 72.2296C201.382 72.4611 201.161 72.6484 201.045 72.9215C200.859 73.3584 200.835 73.8921 200.766 74.4439C200.725 74.4581 200.743 74.4486 200.72 74.4667C200.396 74.3888 200.282 74.059 200.161 73.7748C199.857 73.0569 199.8 71.9014 200.068 71.0757C200.137 70.8616 200.451 70.1885 200.325 69.991C200.264 69.7934 200.064 69.6792 199.953 69.5289C199.815 69.3431 199.677 69.0975 199.581 68.8826C199.332 68.323 199.096 67.672 198.833 67.106C198.708 66.8353 198.496 66.5621 198.322 66.322C198.129 66.056 197.913 65.86 197.763 65.538C197.71 65.4239 197.638 65.2405 197.717 65.1224C197.742 65.0429 197.777 65.0099 197.856 64.9839C197.991 64.88 198.366 65.0177 198.507 65.076C198.88 65.2295 199.191 65.3759 199.507 65.5837C199.658 65.6837 199.811 65.8765 199.995 65.93C200.064 65.93 200.134 65.93 200.204 65.93C200.532 66.0048 200.898 65.9536 201.203 66.0457C201.744 66.2087 202.228 66.4622 202.668 66.7377C204.008 67.5775 205.104 68.7724 205.853 70.1988C205.974 70.4286 206.026 70.6474 206.132 70.8907C206.346 71.3819 206.616 71.8872 206.829 72.3674C207.041 72.8468 207.249 73.3301 207.55 73.7292C207.708 73.9385 208.319 74.0511 208.596 74.1676C208.79 74.2495 209.109 74.3337 209.293 74.4439C209.645 74.6548 209.986 74.9059 210.316 75.1358C210.484 75.2515 210.991 75.5042 211.016 75.7128Z" fill="#00796B"/>
<path id="Vector_15" d="M200.624 66.9234C200.454 66.9203 200.333 66.9415 200.206 66.9698C200.206 66.9777 200.206 66.9848 200.206 66.9935C200.214 66.9935 200.221 66.9935 200.229 66.9935C200.311 67.1588 200.454 67.2666 200.555 67.4091C200.632 67.5704 200.709 67.7318 200.787 67.8932C200.795 67.8853 200.802 67.8782 200.81 67.8704C200.954 67.7696 201.02 67.609 201.019 67.3626C200.962 67.302 200.953 67.2265 200.903 67.1548C200.836 67.058 200.708 67.0037 200.624 66.9234Z" fill="#00796B"/>
</g>
<g id="react" clip-path="url(#clip1_7_13)">
<path id="Vector_16" d="M257.749 20.9259C257.749 24.0823 260.854 27.029 265.751 28.6899C264.773 33.5751 265.576 37.5125 268.256 39.0468C271.012 40.6237 275.117 39.5321 279.013 36.1523C282.81 39.3957 286.649 40.6721 289.327 39.1335C292.08 37.552 292.917 33.3475 291.912 28.3099C297.012 26.6365 299.865 24.1239 299.865 20.9259C299.865 17.8426 296.753 15.1752 291.923 13.5249C293.005 8.27904 292.088 4.43717 289.296 2.83956C286.605 1.29937 282.722 2.6418 278.868 5.97008C274.859 2.43738 271.015 1.3588 268.226 2.96106C265.537 4.50564 264.77 8.51461 265.751 13.4902C261.02 15.1273 257.749 17.855 257.749 20.9259Z" fill="white"/>
<path id="Vector_17" d="M290.9 15.1636C290.512 15.0311 290.11 14.9057 289.696 14.7871C289.764 14.5115 289.826 14.2395 289.882 13.9721C290.793 9.58146 290.197 6.04432 288.162 4.87974C286.211 3.76307 283.02 4.92738 279.797 7.71084C279.487 7.9785 279.176 8.26188 278.866 8.55887C278.659 8.36237 278.452 8.17249 278.246 7.99085C274.868 5.0146 271.483 3.76036 269.45 4.92831C267.5 6.04822 266.923 9.37347 267.744 13.5345C267.823 13.9364 267.915 14.3469 268.02 14.7642C267.541 14.8992 267.078 15.0431 266.636 15.1962C262.676 16.5663 260.147 18.7136 260.147 20.9409C260.147 23.2414 262.862 25.5487 266.986 26.9478C267.312 27.0582 267.65 27.1626 267.998 27.2617C267.885 27.713 267.786 28.1553 267.704 28.5867C266.922 32.6755 267.533 35.9222 269.477 37.035C271.485 38.1843 274.855 37.003 278.137 34.1561C278.396 33.9311 278.657 33.6924 278.917 33.4423C279.255 33.7653 279.593 34.071 279.929 34.3578C283.107 37.0724 286.247 38.1686 288.189 37.0527C290.196 35.9001 290.848 32.4124 290.001 28.169C289.936 27.845 289.861 27.5139 289.777 27.1769C290.013 27.1075 290.246 27.0358 290.472 26.9612C294.76 25.5513 297.55 23.2721 297.55 20.9409C297.55 18.7055 294.939 16.5438 290.9 15.1636Z" fill="#53C1DE"/>
<path id="Vector_18" d="M289.97 25.456C289.765 25.5232 289.555 25.5882 289.342 25.6511C288.868 24.1639 288.229 22.5825 287.447 20.9486C288.194 19.3536 288.808 17.7924 289.268 16.3149C289.65 16.4248 290.022 16.5407 290.38 16.6629C293.841 17.8454 295.952 19.5938 295.952 20.9409C295.952 22.3758 293.672 24.2386 289.97 25.456ZM288.434 28.4769C288.808 30.3533 288.861 32.0498 288.613 33.3759C288.391 34.5676 287.943 35.3621 287.389 35.6803C286.21 36.3574 283.689 35.4773 280.971 33.1557C280.659 32.8895 280.345 32.6054 280.03 32.3046C281.084 31.1607 282.137 29.8309 283.165 28.354C284.974 28.1947 286.682 27.9344 288.231 27.579C288.307 27.8845 288.375 28.184 288.434 28.4769ZM272.898 35.5633C271.747 35.9669 270.83 35.9785 270.275 35.6612C269.095 34.9859 268.605 32.3791 269.274 28.8824C269.351 28.4819 269.442 28.0705 269.547 27.6501C271.079 27.9863 272.775 28.2282 274.587 28.3741C275.622 29.8192 276.706 31.1476 277.798 32.3107C277.56 32.5393 277.322 32.757 277.085 32.9621C275.634 34.2209 274.18 35.1141 272.898 35.5633ZM267.503 25.4472C265.679 24.8286 264.173 24.0246 263.141 23.1472C262.213 22.3588 261.745 21.576 261.745 20.9409C261.745 19.5893 263.775 17.8653 267.162 16.6935C267.573 16.5513 268.003 16.4173 268.449 16.2914C268.917 17.8024 269.531 19.3821 270.272 20.9795C269.522 22.6006 268.899 24.2055 268.426 25.7341C268.108 25.6433 267.8 25.5478 267.503 25.4472ZM269.312 13.2299C268.609 9.66485 269.076 6.97547 270.25 6.30062C271.502 5.58169 274.269 6.60673 277.185 9.17658C277.371 9.34083 277.559 9.51275 277.746 9.69062C276.66 10.8487 275.586 12.167 274.56 13.6037C272.801 13.7655 271.117 14.0254 269.569 14.3735C269.471 13.9849 269.385 13.6032 269.312 13.2299ZM285.446 17.1836C285.076 16.5492 284.696 15.9298 284.308 15.3272C285.502 15.477 286.645 15.6757 287.719 15.9189C287.396 16.9442 286.995 18.0162 286.522 19.1152C286.182 18.476 285.824 17.8314 285.446 17.1836ZM278.866 10.8239C279.603 11.6163 280.341 12.501 281.067 13.4609C280.336 13.4266 279.595 13.4087 278.848 13.4087C278.109 13.4087 277.374 13.4262 276.647 13.4599C277.373 12.5089 278.118 11.6254 278.866 10.8239ZM272.245 17.1946C271.875 17.8308 271.523 18.4718 271.189 19.114C270.724 18.0189 270.326 16.942 270 15.9021C271.068 15.6651 272.206 15.4713 273.391 15.3245C272.999 15.9325 272.615 16.5565 272.245 17.1944V17.1946ZM273.425 26.6704C272.2 26.5348 271.045 26.351 269.978 26.1205C270.309 25.0621 270.716 23.9622 271.191 22.8435C271.526 23.4852 271.879 24.1265 272.251 24.7641H272.251C272.63 25.4137 273.023 26.0499 273.425 26.6704ZM278.911 31.1697C278.153 30.3588 277.398 29.4618 276.66 28.497C277.376 28.5248 278.106 28.5391 278.848 28.5391C279.611 28.5391 280.364 28.5221 281.106 28.4893C280.378 29.4715 279.643 30.3699 278.911 31.1697ZM286.537 22.7865C287.037 23.9173 287.458 25.0114 287.793 26.0518C286.708 26.2973 285.538 26.4951 284.304 26.642C284.692 26.0314 285.075 25.4013 285.452 24.7532C285.833 24.0975 286.195 23.4408 286.537 22.7865ZM284.068 23.961C283.483 24.9671 282.883 25.9275 282.274 26.8341C281.164 26.9128 280.017 26.9534 278.848 26.9534C277.684 26.9534 276.552 26.9175 275.462 26.8473C274.828 25.9288 274.215 24.9656 273.634 23.9697H273.634C273.055 22.9765 272.521 21.9749 272.038 20.9789C272.521 19.9807 273.053 18.978 273.629 17.9866L273.629 17.9868C274.207 16.9927 274.814 16.0341 275.443 15.1214C276.555 15.038 277.696 14.9944 278.848 14.9944H278.848C280.006 14.9944 281.149 15.0383 282.261 15.1225C282.879 16.0285 283.483 16.984 284.063 17.9782C284.649 18.9835 285.188 19.9795 285.675 20.9564C285.189 21.9501 284.652 22.9561 284.068 23.961ZM287.364 6.25344C288.617 6.97025 289.104 9.86115 288.317 13.652C288.267 13.8939 288.21 14.1403 288.149 14.39C286.597 14.0346 284.912 13.7702 283.148 13.606C282.12 12.1535 281.055 10.8331 279.986 9.68989C280.273 9.41549 280.56 9.15385 280.846 8.90694C283.607 6.52209 286.188 5.5805 287.364 6.25344Z" fill="white"/>
<path id="Vector_19" d="M278.848 17.6265C280.693 17.6265 282.188 19.1104 282.188 20.9411C282.188 22.7717 280.693 24.2557 278.848 24.2557C277.004 24.2557 275.508 22.7717 275.508 20.9411C275.508 19.1104 277.004 17.6265 278.848 17.6265Z" fill="#53C1DE"/>
</g>
<g id="android" clip-path="url(#clip2_7_13)">
<g id="Group_2">
<path id="Vector_20" d="M103.827 59.3621C103.65 59.3638 103.465 59.4063 103.297 59.4987C102.764 59.7922 102.568 60.4725 102.864 61.0015L104.068 63.1601C101.166 64.9421 99.2431 67.9857 99.2431 71.4596C99.2431 71.4742 99.2431 71.4961 99.2431 71.5177C99.2431 71.5253 99.243 71.5296 99.2431 71.5381C99.2431 71.5495 99.2431 71.5661 99.2431 71.5689V72.1051C98.6857 71.4687 97.8664 71.0668 96.951 71.0668C95.2739 71.0668 93.9121 72.4183 93.9121 74.0826V83.3726C93.9121 85.037 95.2739 86.3885 96.951 86.3885C97.8664 86.3885 98.6857 85.9866 99.2431 85.3502V86.6515C99.2431 88.4059 100.69 89.8415 102.458 89.8415H103.273V93.9741C103.273 95.6385 104.635 96.99 106.312 96.99C107.989 96.99 109.351 95.6385 109.351 93.9741V89.8415H110.762V93.9741C110.762 95.6385 112.124 96.99 113.801 96.99C115.478 96.99 116.84 95.6385 116.84 93.9741V89.8415H117.656C119.423 89.8415 120.87 88.4059 120.87 86.6515V85.3502C121.427 85.9866 122.247 86.3885 123.162 86.3885C124.839 86.3885 126.201 85.037 126.201 83.3726V74.0826C126.201 72.4183 124.839 71.0668 123.162 71.0668C122.247 71.0668 121.427 71.4687 120.87 72.1051V71.5791V71.5689C120.87 71.5524 120.87 71.5361 120.87 71.5381C120.87 71.5054 120.87 71.4793 120.87 71.4596C120.87 67.9864 118.943 64.9456 116.041 63.1635L117.249 61.0015C117.545 60.4725 117.349 59.7922 116.816 59.4987C116.648 59.4063 116.463 59.3638 116.286 59.3621C115.892 59.3584 115.505 59.5644 115.301 59.9291L114.038 62.1935C112.803 61.7412 111.46 61.4933 110.057 61.4933C108.655 61.4933 107.309 61.7387 106.075 62.1901L104.812 59.9291C104.608 59.5644 104.221 59.3584 103.827 59.3621V59.3621Z" fill="white"/>
<path id="Vector_21" d="M96.9511 71.8523C95.6996 71.8523 94.7037 72.8406 94.7037 74.0826V83.3726C94.7037 84.6146 95.6996 85.6028 96.9511 85.6028C98.2026 85.6028 99.1984 84.6146 99.1984 83.3726V74.0826C99.1984 72.8406 98.2026 71.8523 96.9511 71.8523ZM123.162 71.8523C121.911 71.8523 120.915 72.8406 120.915 74.0826V83.3726C120.915 84.6146 121.911 85.6028 123.162 85.6028C124.414 85.6028 125.409 84.6146 125.409 83.3726V74.0826C125.409 72.8406 124.414 71.8523 123.162 71.8523Z" fill="#A4C639"/>
<path id="Vector_22" d="M106.312 82.4539C105.061 82.4539 104.065 83.4421 104.065 84.6841V93.9741C104.065 95.2161 105.061 96.2044 106.312 96.2044C107.564 96.2044 108.559 95.2161 108.559 93.9741V84.6841C108.559 83.4421 107.564 82.4539 106.312 82.4539ZM113.801 82.4539C112.549 82.4539 111.554 83.4421 111.554 84.6841V93.9741C111.554 95.2161 112.549 96.2044 113.801 96.2044C115.052 96.2044 116.048 95.2161 116.048 93.9741V84.6841C116.048 83.4421 115.052 82.4539 113.801 82.4539Z" fill="#A4C639"/>
<path id="Vector_23" d="M103.834 60.1477C103.781 60.1483 103.732 60.1619 103.683 60.1887C103.522 60.2769 103.47 60.4596 103.559 60.6191L105.142 63.4573C102.096 65.0301 100.039 68.0191 100.035 71.4494H120.078C120.074 68.0191 118.017 65.0301 114.971 63.4573L116.554 60.6191C116.643 60.4596 116.591 60.2769 116.43 60.1887C116.382 60.1619 116.332 60.1482 116.279 60.1477C116.165 60.1466 116.057 60.203 115.997 60.3117L114.393 63.1806C113.081 62.6031 111.609 62.279 110.057 62.279C108.504 62.279 107.032 62.6031 105.72 63.1806L104.116 60.3117C104.056 60.203 103.948 60.1466 103.834 60.1477ZM100.035 72.2349V86.6515C100.035 87.9836 101.115 89.056 102.458 89.056H117.656C118.998 89.056 120.078 87.9836 120.078 86.6515V72.2349H100.035Z" fill="#A4C639"/>
<path id="Vector_24" d="M105.431 66.1487C104.973 66.1487 104.595 66.5245 104.595 66.9786C104.595 67.4327 104.973 67.8086 105.431 67.8086C105.889 67.8086 106.267 67.4327 106.267 66.9786C106.267 66.5245 105.889 66.1487 105.431 66.1487ZM114.682 66.1487C114.224 66.1487 113.846 66.5245 113.846 66.9786C113.846 67.4327 114.224 67.8086 114.682 67.8086C115.14 67.8086 115.518 67.4327 115.518 66.9786C115.518 66.5245 115.14 66.1487 114.682 66.1487Z" fill="white"/>
</g>
</g>
<g id="html">
<g id="Guides_to_delete">
<g id="Group_3">
<path id="Vector_25" d="M6.71468 36.3025L3.97147 5.76562H34.101L31.3544 36.3049L19.0289 39.6957L6.71468 36.3025Z" fill="#E34E26"/>
<path id="Vector_26" d="M19.0362 8.26172V37.1019L29.0029 34.3601L31.3511 8.26172H19.0362Z" fill="#EF662A"/>
<path id="Vector_27" d="M9.58414 12.0073L10.6014 23.3332H23.682L23.243 28.1911L19.0314 29.3211L14.8277 28.1928L14.5466 25.0735H10.7584L11.3001 31.0865L19.0305 33.2172L26.7706 31.0865L27.8082 19.5884H14.0531L13.7077 15.753H28.1387H28.1503L28.4883 12.0073H9.58414Z" fill="white"/>
<g id="Group_4">
<path id="Vector_28" d="M19.0362 12.0073H9.58414L10.6014 23.3332H19.0362V19.5884H14.0531L13.7077 15.753H19.0362V12.0073Z" fill="#EBEBEB"/>
<path id="Vector_29" d="M19.0362 29.3195L19.0314 29.3211L14.8277 28.1927L14.5466 25.0735H10.7584L11.3001 31.0864L19.0305 33.2171L19.0362 33.2155V29.3195Z" fill="#EBEBEB"/>
</g>
</g>
</g>
</g>
<g id="css">
<path id="Vector_30" d="M123.122 4.61548H93.6371L96.2388 33.8766L108.38 37.3191L120.521 33.8766L123.122 4.61548Z" fill="#0277BD"/>
<path id="Vector_31" d="M108.38 7.19727V34.6511L118.092 31.8971L120.26 7.19727H108.38Z" fill="#039BE5"/>
<path id="Vector_32" d="M116.271 11.5002H108.38V14.9427H112.629L112.369 18.3852H108.38V21.8277H112.195L111.935 25.7005L108.38 26.9053V30.52L115.231 28.2823L115.838 18.3852L116.271 11.5002Z" fill="white"/>
<path id="Vector_33" d="M108.38 11.5002V14.9427H100.662L100.401 11.5002H108.38ZM104.391 18.3852L104.564 21.8277H108.38V18.3852H104.391ZM104.737 23.5489H101.269L101.529 28.2823L108.38 30.52V26.9053L104.824 25.7005L104.737 23.5489Z" fill="#EEEEEE"/>
</g>
<g id="javascript" clip-path="url(#clip3_7_13)">
<g id="Group_5">
<path id="Vector_34" d="M175.895 4.84619H210.921V39.6069H175.895V4.84619Z" fill="#F7DF1E"/>
<path id="Vector_35" d="M185.105 33.8947L187.785 32.2849C188.302 33.1948 188.773 33.9646 189.901 33.9646C190.983 33.9646 191.664 33.5448 191.664 31.9116V20.8047H194.956V31.9577C194.956 35.3411 192.958 36.8811 190.042 36.8811C187.409 36.8811 185.88 35.5277 185.105 33.8945" fill="black"/>
<path id="Vector_36" d="M196.744 33.5447L199.424 32.0047C200.13 33.1482 201.047 33.9881 202.669 33.9881C204.033 33.9881 204.903 33.3114 204.903 32.378C204.903 31.258 204.009 30.8613 202.504 30.2082L201.682 29.8579C199.307 28.8548 197.731 27.5948 197.731 24.9347C197.731 22.4847 199.612 20.6179 202.551 20.6179C204.644 20.6179 206.149 21.3413 207.23 23.2314L204.667 24.8646C204.103 23.8614 203.492 23.4648 202.552 23.4648C201.587 23.4648 200.976 24.0714 200.976 24.8646C200.976 25.8447 201.587 26.2414 202.998 26.8481L203.821 27.1981C206.619 28.3882 208.194 29.6014 208.194 32.3313C208.194 35.2715 205.867 36.8814 202.74 36.8814C199.683 36.8814 197.708 35.4348 196.744 33.5447" fill="black"/>
</g>
</g>
</g>
<defs>
<clipPath id="clip0_7_13">
<rect width="38.0725" height="37.7834" fill="white" transform="translate(174.372 55.7278)"/>
</clipPath>
<clipPath id="clip1_7_13">
<rect width="42.3763" height="37.7834" fill="white" transform="translate(257.624 2.0752)"/>
</clipPath>
<clipPath id="clip2_7_13">
<rect width="32.3806" height="37.7834" fill="white" transform="translate(93.9121 59.2544)"/>
</clipPath>
<clipPath id="clip3_7_13">
<rect width="35.0267" height="34.7607" fill="white" transform="translate(175.895 4.84619)"/>
</clipPath>
</defs>
</svg>
